<?xml version="1.0" standalone="no"?>
<!DOCTYPE svg PUBLIC "-//W3C//DTD SVG 20010904//EN"
 "http://www.w3.org/TR/2001/REC-SVG-20010904/DTD/svg10.dtd">
<svg version="1.0" xmlns="http://www.w3.org/2000/svg"
 width="414.000000pt" height="494.000000pt" viewBox="0 0 414.000000 494.000000"
 preserveAspectRatio="xMidYMid meet">

<g transform="translate(0.000000,494.000000) scale(0.100000,-0.100000)"
fill="#000000" stroke="none">
<path d="M398 4624 c-126 -153 -177 -272 -185 -434 -18 -344 134 -634 435
-828 120 -77 354 -132 502 -116 94 9 265 67 335 113 85 56 173 146 238 243 71
108 96 155 103 198 3 19 10 47 16 62 l10 26 191 -5 c106 -2 198 -6 205 -8 6
-3 12 -14 12 -26 0 -27 41 -142 74 -206 54 -108 158 -219 284 -306 68 -46 186
-92 297 -113 76 -15 100 -16 185 -5 128 15 214 41 318 93 95 48 181 126 256
233 80 115 76 91 76 452 l0 324 -26 52 c-37 72 -96 156 -135 193 l-34 32 -480
16 c-264 9 -506 16 -537 16 l-58 0 -55 -67 c-94 -114 -130 -176 -155 -269
l-22 -86 -167 6 c-259 10 -231 2 -262 83 -34 89 -113 219 -184 306 l-55 67
-103 0 c-56 0 -147 3 -202 5 -165 9 -650 25 -735 25 l-80 0 -62 -76z m826
-127 c169 -84 277 -242 293 -432 9 -115 -28 -219 -111 -312 -122 -136 -283
-187 -455 -144 -105 26 -174 65 -249 142 -90 91 -152 228 -152 338 0 51 34
179 60 232 46 88 171 180 286 208 22 6 87 9 145 8 100 -2 109 -4 183 -40z
m1917 -33 c107 -27 214 -108 280 -212 53 -84 72 -162 67 -277 -4 -87 -9 -111
-35 -166 -38 -81 -127 -170 -208 -209 -121 -58 -280 -64 -379 -14 -158 79
-249 197 -284 364 -14 68 -15 90 -3 167 23 161 110 267 271 331 108 43 171 47
291 16z"/>
<path d="M965 4253 c-68 -35 -125 -111 -125 -166 0 -112 126 -231 226 -212 89
16 164 104 164 193 0 54 -14 90 -53 131 -62 65 -149 87 -212 54z"/>
<path d="M2959 4180 c-93 -62 -120 -148 -76 -237 60 -117 170 -152 266 -84
108 77 94 245 -27 322 -60 38 -105 38 -163 -1z"/>
<path d="M845 2938 c-102 -68 -181 -200 -226 -375 -10 -42 -19 -95 -19 -117
l0 -41 143 -1 c106 -1 153 -5 186 -18 24 -9 47 -16 52 -16 5 0 9 35 9 78 0 69
3 84 28 123 16 24 44 57 63 73 75 64 15 60 1010 59 888 0 906 -1 951 -21 58
-25 133 -94 159 -143 18 -36 19 -80 19 -1288 l1 -1251 196 0 196 0 -6 1247
c-4 810 -10 1265 -16 1297 -23 107 -153 331 -215 371 -23 15 -197 21 -881 30
-209 3 -553 7 -765 10 -212 3 -486 8 -610 11 l-226 5 -49 -33z"/>
<path d="M1578 2346 c-58 -16 -110 -59 -138 -113 -18 -35 -20 -48 -11 -80 11
-39 65 -100 109 -122 16 -9 179 -14 572 -17 528 -5 551 -4 593 14 84 37 130
139 94 209 -23 44 -91 101 -134 112 -60 15 -1027 13 -1085 -3z"/>
<path d="M619 2180 c-127 -20 -273 -85 -340 -152 -164 -164 -194 -406 -78
-629 90 -172 302 -299 500 -299 229 0 400 108 493 312 77 166 74 322 -6 482
-91 181 -362 317 -569 286z m158 -335 c99 -30 146 -95 147 -205 1 -113 -65
-196 -175 -219 -66 -15 -118 -5 -182 33 -69 41 -98 98 -100 193 -1 75 13 111
60 155 57 55 154 71 250 43z"/>
<path d="M1574 1734 c-75 -26 -130 -106 -121 -176 7 -49 49 -111 95 -140 34
-21 41 -21 575 -24 608 -3 576 -7 649 74 66 73 58 154 -20 223 -70 62 -54 60
-623 58 -384 -2 -528 -6 -555 -15z"/>
<path d="M1556 1105 c-48 -17 -112 -78 -126 -121 -8 -24 -8 -44 0 -74 12 -45
71 -117 107 -131 13 -5 276 -11 584 -14 623 -5 586 -9 652 64 42 46 52 76 44
131 -6 49 -34 88 -88 126 l-42 29 -546 2 c-447 2 -553 0 -585 -12z"/>
<path d="M915 925 c-97 -37 -241 -52 -299 -32 -7 3 -11 -341 -8 -645 l2 -248
188 0 189 0 -1 475 c-1 261 -3 474 -6 474 -3 -1 -32 -12 -65 -24z"/>
</g>
</svg>
