<?xml version="1.0" standalone="no"?>
<!DOCTYPE svg PUBLIC "-//W3C//DTD SVG 20010904//EN"
 "http://www.w3.org/TR/2001/REC-SVG-20010904/DTD/svg10.dtd">
<svg version="1.0" xmlns="http://www.w3.org/2000/svg"
 width="612.000000pt" height="618.000000pt" viewBox="0 0 612.000000 618.000000"
 preserveAspectRatio="xMidYMid meet">

<g transform="translate(0.000000,618.000000) scale(0.100000,-0.100000)"
fill="#000000" stroke="none">
<path d="M1915 6103 c-112 -15 -298 -58 -381 -88 -119 -43 -301 -138 -404
-211 -370 -260 -626 -686 -710 -1180 -98 -572 169 -1211 655 -1569 218 -160
506 -290 740 -334 75 -14 425 -15 514 0 214 33 465 125 619 225 l83 54 87 -76
c48 -42 115 -101 150 -131 l63 -55 -34 -41 c-19 -23 -39 -52 -45 -64 -30 -56
-26 -62 251 -337 503 -498 1030 -1011 1061 -1031 26 -17 47 -20 131 -19 168 1
271 47 394 179 68 73 103 139 126 239 25 103 21 132 -27 195 -46 62 -411 429
-753 756 -121 116 -274 267 -340 336 -158 164 -157 164 -275 164 l-95 0 -86
87 c-47 47 -108 111 -134 142 l-48 56 36 54 c61 92 148 276 187 396 62 189 75
281 75 545 0 202 -3 243 -23 335 -31 139 -93 324 -145 430 -114 230 -354 511
-557 652 -223 154 -498 256 -775 288 -87 9 -278 11 -340 3z m455 -197 c199
-39 352 -104 544 -231 176 -115 362 -308 479 -496 174 -279 250 -703 189
-1046 -39 -216 -88 -341 -213 -548 -168 -279 -309 -409 -584 -545 -280 -137
-388 -163 -675 -164 -197 0 -210 1 -342 33 -198 47 -333 106 -522 228 -118 76
-209 161 -316 295 -189 234 -285 431 -341 698 -29 144 -31 164 -26 295 4 108
11 160 30 225 14 47 30 110 37 140 19 82 87 265 131 351 80 153 285 380 471
520 189 141 420 232 668 263 80 10 388 -2 470 -18z m1137 -2793 c87 -84 87
-79 -21 -175 l-64 -57 -113 90 c-63 50 -118 95 -123 100 -6 5 27 46 84 103
l95 94 34 -42 c19 -22 67 -73 108 -113z m495 -309 c90 -91 203 -205 253 -252
49 -48 198 -193 330 -322 132 -130 293 -286 358 -347 137 -130 139 -136 82
-251 -61 -122 -185 -215 -305 -229 l-51 -6 -207 205 c-114 112 -274 269 -357
348 -82 80 -224 219 -315 310 -91 91 -209 206 -263 256 l-98 91 88 99 c133
149 197 211 250 238 26 14 53 25 60 26 6 0 85 -75 175 -166z"/>
<path d="M1970 5779 c-243 -22 -437 -93 -670 -247 -161 -106 -379 -357 -451
-519 -17 -37 -37 -84 -46 -103 -32 -69 -34 -100 -8 -126 32 -32 79 -32 99 -1
7 12 21 45 30 72 11 33 42 80 89 136 40 47 104 123 143 170 136 161 320 306
468 368 187 78 391 104 609 78 160 -20 221 -38 372 -112 217 -107 413 -286
527 -480 114 -194 145 -305 155 -550 12 -320 -60 -578 -228 -811 -144 -201
-313 -323 -558 -406 -151 -51 -235 -61 -444 -56 -278 8 -433 55 -644 195 -212
141 -367 332 -467 575 -58 139 -77 233 -83 410 -7 177 -1 168 -95 168 -43 0
-48 -2 -55 -27 -5 -16 -8 -91 -7 -168 0 -107 5 -162 22 -232 56 -237 198 -495
367 -667 80 -80 286 -231 384 -280 103 -52 272 -108 396 -131 71 -14 122 -16
240 -12 184 8 251 18 383 62 212 71 373 170 540 329 194 186 333 434 376 666
33 180 38 294 21 472 -18 189 -27 231 -85 380 -117 304 -410 599 -733 740
-100 43 -285 95 -367 102 -121 11 -199 13 -280 5z"/>
<path d="M1559 5321 c-38 -38 -69 -76 -69 -85 0 -9 9 -35 20 -56 24 -48 38
-49 123 -14 92 38 112 62 108 133 -1 30 -62 91 -91 91 -14 0 -47 -25 -91 -69z"/>
<path d="M1309 5172 c-59 -39 -169 -194 -169 -238 0 -34 39 -94 62 -94 9 0 43
29 75 63 32 35 75 77 96 93 21 16 47 44 58 61 18 29 19 36 7 59 -27 55 -90 83
-129 56z"/>
<path d="M1702 4941 c-33 -6 -34 -8 -104 -191 -38 -102 -97 -259 -129 -350
-33 -91 -77 -208 -99 -260 -22 -52 -40 -100 -40 -106 0 -18 26 -24 111 -24 92
0 89 -4 134 143 l28 89 171 -5 171 -5 30 -98 c17 -55 33 -104 35 -110 3 -7 47
-15 113 -19 l107 -7 0 34 c0 32 -78 246 -152 413 -16 39 -56 133 -88 210 -82
202 -124 281 -152 289 -27 7 -90 6 -136 -3z m158 -438 c21 -56 35 -105 32
-108 -3 -3 -54 -5 -114 -5 -86 0 -108 3 -108 14 0 8 13 45 28 82 16 38 42 100
57 139 l29 69 20 -44 c10 -25 36 -91 56 -147z"/>
<path d="M2413 4942 c-8 -5 -9 -21 -2 -57 13 -72 14 -748 1 -810 -6 -30 -7
-54 -1 -59 7 -8 177 7 184 16 1 2 -1 82 -6 178 -7 160 3 542 17 683 l6 57 -93
0 c-52 0 -99 -4 -106 -8z"/>
<path d="M1021 4824 c-13 -9 -34 -39 -46 -67 -19 -39 -21 -55 -14 -76 27 -70
88 -83 135 -28 34 40 54 87 54 127 0 26 -6 33 -35 46 -44 18 -65 18 -94 -2z"/>
<path d="M4554 5720 c-136 -45 -249 -153 -294 -285 -32 -94 -71 -155 -137
-212 -41 -36 -72 -74 -89 -109 -24 -50 -26 -62 -22 -150 l4 -96 -39 -32 c-109
-87 -121 -215 -37 -381 22 -44 47 -105 56 -135 21 -73 34 -96 90 -165 33 -41
62 -64 99 -80 51 -23 52 -24 69 -89 34 -123 132 -224 250 -256 l61 -17 6 -64
c4 -35 7 -99 8 -141 l1 -78 -52 0 c-96 0 -128 10 -134 39 -42 196 -257 272
-383 135 -102 -109 -107 -235 -14 -343 88 -103 222 -110 323 -15 52 49 58 50
121 29 24 -7 64 -19 88 -25 l44 -11 -8 -200 c-5 -151 -4 -203 5 -214 9 -11 33
-15 80 -15 62 0 68 2 74 23 3 12 3 200 -1 417 -3 217 -3 412 1 431 6 33 10 37
45 43 22 3 59 21 84 40 l44 33 7 -369 c6 -333 5 -376 -11 -424 -21 -69 -14
-77 75 -82 54 -3 71 -1 81 12 11 13 13 98 12 443 l-2 426 28 -24 c25 -21 63
-40 141 -70 l22 -9 2 -277 c3 -303 -1 -589 -8 -614 -2 -9 -23 -21 -45 -28 -58
-18 -99 -84 -99 -160 1 -210 235 -288 337 -113 41 70 39 144 -5 206 l-33 46 3
233 c1 127 -1 242 -5 253 -7 21 -4 22 100 26 119 6 144 0 188 -42 43 -41 81
-53 145 -45 91 11 164 65 210 156 81 158 -103 377 -275 329 -81 -23 -175 -127
-175 -194 0 -14 -8 -29 -17 -35 -22 -11 -167 -19 -170 -8 -2 4 -3 69 -3 145
l0 137 59 17 c124 37 238 160 249 269 l5 50 61 28 c39 18 76 44 100 72 45 52
96 153 96 191 0 14 19 63 43 108 40 79 42 85 42 173 0 98 -8 123 -64 196 -24
32 -26 40 -23 127 6 144 -11 189 -109 285 -43 43 -79 85 -79 91 -1 59 -111
222 -208 310 -84 76 -197 113 -319 106 -89 -5 -186 -50 -240 -112 l-37 -42
-34 38 c-19 21 -68 54 -108 75 -94 46 -186 54 -280 23z m179 -161 c49 -13 115
-73 138 -124 15 -35 18 -81 21 -340 l3 -300 -76 4 c-73 3 -75 2 -87 -24 -17
-37 -15 -110 4 -129 11 -12 36 -16 90 -16 l74 0 0 -90 0 -90 -124 0 c-69 0
-137 5 -153 11 -35 13 -80 55 -99 91 -13 25 -13 31 2 53 9 15 20 61 25 108 7
74 11 84 36 102 101 72 133 142 132 284 -2 226 -17 275 -90 287 -65 11 -70 -2
-67 -203 l3 -175 -33 -29 c-28 -25 -40 -29 -93 -29 -77 0 -93 9 -124 70 -18
36 -35 54 -60 64 -19 8 -35 19 -35 24 0 14 42 48 78 62 36 14 52 36 52 72 0
28 62 160 96 205 47 62 155 121 224 122 14 1 42 -4 63 -10z m662 -17 c86 -44
185 -177 219 -296 12 -42 23 -59 44 -70 39 -20 65 -53 58 -71 -3 -9 -24 -24
-46 -33 -28 -12 -44 -28 -56 -54 -22 -49 -44 -68 -88 -75 -44 -7 -90 11 -112
45 -14 21 -16 50 -15 183 2 147 0 160 -19 179 -25 25 -81 27 -103 3 -25 -28
-39 -140 -35 -280 l3 -130 42 -55 c23 -30 55 -61 72 -68 l31 -12 0 -87 c0 -69
4 -92 20 -116 29 -44 25 -69 -16 -105 -54 -47 -75 -51 -208 -45 l-121 5 0 85
0 85 65 0 c36 0 70 4 76 8 31 21 44 94 24 133 -9 16 -22 19 -90 19 l-80 0 1
263 c0 334 5 385 45 434 17 20 50 48 75 61 37 20 54 23 109 19 39 -2 81 -12
105 -25z m-1185 -694 c21 -27 77 -52 143 -63 45 -7 60 -35 55 -104 -3 -39 -6
-46 -23 -44 -81 8 -148 5 -156 -8 -12 -19 -11 -76 1 -100 17 -31 67 -51 109
-44 37 6 39 5 70 -44 84 -130 148 -157 353 -148 l128 6 0 -125 c0 -140 -9
-170 -72 -234 -90 -92 -290 -78 -376 26 -39 47 -44 94 -9 94 12 0 35 7 51 15
27 14 30 14 63 -15 44 -39 67 -38 109 4 48 48 47 87 -4 135 -21 20 -56 42 -78
49 -34 10 -47 9 -92 -8 -69 -26 -192 -27 -241 -2 -56 28 -75 63 -79 145 -4 71
-5 72 -52 119 -34 32 -51 58 -56 82 -11 59 4 120 40 168 48 62 56 82 56 130
l1 43 19 -25 c10 -14 28 -37 40 -52z m1570 5 c14 -26 35 -59 46 -73 60 -72 74
-102 74 -162 0 -59 -1 -60 -56 -118 -50 -53 -55 -62 -49 -90 9 -42 -12 -123
-39 -149 -45 -43 -217 -52 -304 -16 -55 24 -88 19 -128 -18 -26 -23 -37 -43
-41 -73 -5 -37 -2 -43 32 -73 33 -29 43 -32 74 -26 20 3 64 9 99 12 l62 5 0
-35 c0 -84 -91 -149 -218 -155 -114 -6 -191 39 -246 145 -12 25 -16 61 -16
159 0 116 1 126 18 119 9 -4 71 -9 138 -12 116 -6 123 -5 183 22 69 31 133 95
151 150 l11 33 55 -5 c48 -5 58 -3 79 17 20 19 25 33 25 72 0 43 -3 50 -26 58
-14 6 -52 10 -84 10 -53 0 -58 2 -64 24 -7 27 2 85 16 102 5 7 25 15 44 19 25
4 51 21 83 55 25 26 48 48 51 49 3 1 16 -20 30 -46z m-1570 -1355 c45 -31 56
-67 35 -111 -9 -19 -26 -39 -39 -45 -53 -24 -126 22 -126 80 0 38 5 46 44 76
36 28 45 27 86 0z m1647 12 c56 -20 69 -89 27 -139 -72 -86 -202 16 -138 107
27 38 63 48 111 32z m-533 -882 c16 -26 -22 -73 -60 -73 -24 0 -30 6 -38 34
-8 28 -7 36 10 48 25 18 74 13 88 -9z"/>
<path d="M388 3233 c-17 -4 -18 -30 -18 -367 l0 -362 -34 -12 c-19 -7 -48 -28
-64 -47 -36 -41 -72 -132 -72 -184 0 -98 62 -203 141 -238 32 -14 39 -21 35
-38 -3 -11 -6 -115 -6 -232 0 -211 0 -212 -22 -218 -45 -14 -87 -56 -117 -116
-70 -140 -18 -309 110 -363 l36 -15 -4 -468 -5 -468 32 -37 c26 -32 38 -38 70
-38 21 0 43 6 50 15 9 11 11 130 9 502 l-3 487 31 8 c37 10 108 84 134 141 22
49 25 140 7 201 -15 51 -91 129 -141 145 l-36 12 -3 229 -3 228 37 11 c53 16
124 99 144 169 20 67 14 143 -15 200 -24 48 -95 111 -133 119 l-27 5 1 355 c2
337 1 356 -17 369 -18 13 -80 17 -117 7z m133 -892 c50 -49 52 -84 8 -129 -18
-18 -43 -35 -57 -39 -51 -12 -122 49 -122 106 0 12 16 39 36 61 49 54 82 54
135 1z m-37 -935 c65 -27 92 -96 61 -156 -43 -83 -139 -78 -183 11 -24 49 -18
76 31 127 35 36 44 38 91 18z"/>
<path d="M5763 2753 c-73 -6 -83 -22 -83 -141 0 -85 2 -95 25 -117 22 -23 32
-25 113 -25 120 0 126 6 130 144 4 126 -3 138 -79 141 -30 1 -78 0 -106 -2z"/>
<path d="M1377 2636 c-86 -32 -133 -96 -148 -204 -16 -111 34 -223 115 -257
l28 -12 2 -1051 c1 -1189 -7 -1083 85 -1084 91 0 83 -83 80 872 -1 465 -2 933
-1 1041 l2 196 47 25 c137 70 188 293 93 402 -60 68 -215 105 -303 72z m168
-161 c31 -30 33 -77 5 -122 -25 -42 -54 -56 -96 -49 -46 9 -74 48 -74 102 0
36 5 46 33 68 43 35 99 35 132 1z"/>
<path d="M5189 2200 c-20 -12 -29 -55 -30 -141 -2 -86 14 -99 122 -99 110 0
119 10 119 129 0 116 -5 121 -113 121 -45 0 -89 -5 -98 -10z"/>
<path d="M2373 2161 c-35 -9 -74 -37 -104 -75 -57 -72 -67 -196 -23 -284 29
-57 87 -112 120 -112 l21 0 -5 -788 c-3 -434 -2 -805 2 -826 5 -27 14 -40 32
-46 26 -10 91 -4 114 10 10 6 12 158 11 726 0 396 2 763 5 816 6 91 8 97 30
102 40 10 100 72 125 129 17 39 23 70 22 124 0 62 -4 79 -29 120 -18 29 -49
59 -77 77 -42 26 -60 30 -130 32 -45 2 -96 -1 -114 -5z m141 -145 c37 -15 66
-50 66 -79 0 -34 -32 -88 -62 -103 -84 -43 -193 66 -143 142 16 24 65 53 93
54 7 0 28 -6 46 -14z"/>
<path d="M3411 1831 c-11 -7 -12 -34 -5 -147 l9 -138 -30 -17 c-38 -23 -94
-105 -106 -155 -28 -122 13 -239 105 -299 l23 -15 -5 -504 -5 -503 24 -17 c27
-19 63 -21 108 -5 l31 11 0 321 c0 177 3 406 7 510 l6 187 31 0 c23 0 41 12
81 53 81 84 105 185 68 292 -21 63 -87 130 -142 145 l-41 11 0 120 c0 66 -5
129 -10 140 -9 16 -22 19 -73 19 -34 0 -68 -4 -76 -9z m162 -431 c33 -26 51
-79 38 -112 -10 -26 -65 -78 -82 -78 -27 0 -71 35 -90 71 -17 35 -19 46 -9 69
29 69 91 91 143 50z"/>
<path d="M5695 1465 c-22 -21 -25 -33 -25 -99 0 -41 5 -87 12 -101 15 -34 73
-49 155 -40 91 10 103 25 103 134 0 47 -4 91 -8 98 -14 21 -62 33 -138 33 -66
0 -78 -3 -99 -25z"/>
<path d="M4043 1420 c-31 -13 -43 -41 -43 -103 0 -49 3 -58 31 -81 21 -18 42
-26 67 -26 52 1 112 16 130 33 18 18 19 105 2 136 -22 43 -127 65 -187 41z"/>
<path d="M4033 942 c-22 -14 -33 -63 -33 -148 0 -116 8 -124 134 -124 132 0
129 -3 127 164 0 51 -5 94 -12 102 -8 10 -38 14 -108 14 -53 0 -101 -4 -108
-8z"/>
<path d="M5682 923 c-4 -10 -7 -65 -7 -121 0 -135 7 -142 137 -142 130 0 128
-2 128 135 0 148 3 145 -141 145 -95 0 -111 -2 -117 -17z"/>
<path d="M4589 383 c-10 -11 -14 -48 -14 -129 0 -141 3 -145 107 -151 116 -6
121 -1 131 135 12 157 9 162 -117 162 -75 0 -96 -3 -107 -17z"/>
<path d="M5160 388 c-22 -8 -34 -85 -28 -183 5 -87 17 -97 115 -103 67 -4 81
-2 103 16 23 19 25 27 28 124 5 138 -1 145 -116 150 -45 2 -91 0 -102 -4z"/>
</g>
</svg>
